<svg width="34" height="34" viewBox="0 0 34 34" fill="none" xmlns="http://www.w3.org/2000/svg">
<path fill-rule="evenodd" clip-rule="evenodd" d="M16.9434 33.9956C16.1291 34.0183 15.3373 33.9503 14.523 33.837C12.3287 33.5197 10.2702 32.8172 8.37006 31.6615C4.16246 29.1235 1.47056 25.4297 0.362162 20.5802C0.113362 19.4924 0.000262803 18.382 0.000262803 17.2716C-0.0224372 12.8301 1.42536 8.93231 4.36606 5.62381C6.92226 2.76851 10.0893 1.02361 13.8217 0.298414C14.8623 0.0945136 15.9029 -0.0187866 16.9434 0.0265134C16.9434 1.72611 16.9434 3.40301 16.9434 5.10261C16.8982 5.12521 16.853 5.14791 16.8077 5.19321C16.1969 5.62381 15.5862 6.07701 14.998 6.55291C13.6634 7.64061 12.3966 8.79641 11.3334 10.1787C9.90826 12.0142 8.95816 14.0311 8.82246 16.4105C8.75456 17.5436 8.89026 18.654 9.25226 19.7191C10.1345 22.3704 12.8716 25.1124 16.7172 25.1804C16.9434 25.1804 16.9887 25.2257 16.9887 25.475C16.9661 26.6307 16.9661 28.9422 16.9661 28.9422C16.9661 28.9422 16.9661 29.0781 16.9661 29.1461C16.9434 30.7551 16.9434 32.364 16.9434 33.9956Z" fill="#0099FF"/>
<path fill-rule="evenodd" clip-rule="evenodd" d="M16.9429 5.07958C16.9429 5.07958 16.9429 1.70308 16.9429 0.00347966C17.8704 -0.0192203 18.7752 0.07148 19.6801 0.20738C21.3766 0.47938 23.0054 0.97788 24.5436 1.77098C27.7332 3.42528 30.2441 5.78208 31.9407 8.99998C32.9134 10.8582 33.5468 12.8297 33.7956 14.8919C34.0897 17.3166 33.8635 19.7187 33.1396 22.0528C32.3026 24.7042 30.9001 27.0383 28.9321 29.0098C26.5342 31.3892 23.684 32.9302 20.3813 33.6327C19.2503 33.8593 18.0966 33.9953 16.9429 33.9726C16.9429 32.341 16.9429 30.732 16.9429 29.1004C16.9429 29.0325 16.9429 28.9192 16.9429 28.9192C16.9429 28.9192 17.0108 28.8738 17.0334 28.8512C18.7978 27.6048 20.4718 26.2451 21.9196 24.6135C22.8696 23.5485 23.684 22.4154 24.2495 21.101C25.0413 19.2428 25.358 17.3393 24.9508 15.3224C24.2269 11.6513 20.9468 8.90928 17.1691 8.81868C16.9203 8.81868 16.9429 8.61468 16.9429 8.61468V5.07958Z" fill="#0561E2"/>
</svg>
