<svg width="24" height="24" viewBox="0 0 24 24" fill="none" xmlns="http://www.w3.org/2000/svg">
<path d="M0 12C0 8.27247 0 6.4087 0.608964 4.93853C1.42092 2.97831 2.97831 1.42092 4.93853 0.608964C6.4087 0 8.27247 0 12 0V0C15.7275 0 17.5913 0 19.0615 0.608964C21.0217 1.42092 22.5791 2.97831 23.391 4.93853C24 6.4087 24 8.27247 24 12V12C24 15.7275 24 17.5913 23.391 19.0615C22.5791 21.0217 21.0217 22.5791 19.0615 23.391C17.5913 24 15.7275 24 12 24V24C8.27247 24 6.4087 24 4.93853 23.391C2.97831 22.5791 1.42092 21.0217 0.608964 19.0615C0 17.5913 0 15.7275 0 12V12Z" fill="#E3F5FF"/>
<path d="M17 13H18C18.1326 13 18.2598 12.9473 18.3536 12.8535C18.4473 12.7598 18.5 12.6326 18.5 12.5C18.5 12.3674 18.4473 12.2402 18.3536 12.1464C18.2598 12.0527 18.1326 12 18 12H17V11H18C18.1326 11 18.2598 10.9473 18.3536 10.8535C18.4473 10.7598 18.5 10.6326 18.5 10.5C18.5 10.3674 18.4473 10.2402 18.3536 10.1464C18.2598 10.0527 18.1326 9.99997 18 9.99997H16.975C16.8646 8.90257 16.3933 7.87277 15.635 7.07185L16.8538 5.85372C16.9002 5.80727 16.9371 5.75212 16.9622 5.69142C16.9873 5.63072 17.0003 5.56567 17.0003 5.49997C17.0003 5.43428 16.9873 5.36922 16.9622 5.30852C16.9371 5.24783 16.9002 5.19268 16.8538 5.14622C16.8073 5.09977 16.7521 5.06292 16.6914 5.03778C16.6308 5.01263 16.5657 4.99969 16.5 4.99969C16.4343 4.99969 16.3692 5.01263 16.3086 5.03778C16.2479 5.06292 16.1927 5.09977 16.1462 5.14622L14.8781 6.41497C14.0365 5.81961 13.0309 5.4999 12 5.4999C10.9691 5.4999 9.96351 5.81961 9.12187 6.41497L7.85375 5.14622C7.75993 5.0524 7.63268 4.99969 7.5 4.99969C7.36732 4.99969 7.24007 5.0524 7.14625 5.14622C7.05243 5.24004 6.99972 5.36729 6.99972 5.49997C6.99972 5.63265 7.05243 5.7599 7.14625 5.85372L8.365 7.07185C7.6067 7.87277 7.13544 8.90257 7.025 9.99997H6C5.86739 9.99997 5.74021 10.0527 5.64645 10.1464C5.55268 10.2402 5.5 10.3674 5.5 10.5C5.5 10.6326 5.55268 10.7598 5.64645 10.8535C5.74021 10.9473 5.86739 11 6 11H7V12H6C5.86739 12 5.74021 12.0527 5.64645 12.1464C5.55268 12.2402 5.5 12.3674 5.5 12.5C5.5 12.6326 5.55268 12.7598 5.64645 12.8535C5.74021 12.9473 5.86739 13 6 13H7V13.5C7 13.6687 7.00875 13.8356 7.025 14H6C5.86739 14 5.74021 14.0527 5.64645 14.1464C5.55268 14.2402 5.5 14.3674 5.5 14.5C5.5 14.6326 5.55268 14.7598 5.64645 14.8535C5.74021 14.9473 5.86739 15 6 15H7.23C7.54904 16.0152 8.18366 16.9021 9.04155 17.5318C9.89944 18.1614 10.9358 18.5009 12 18.5009C13.0642 18.5009 14.1006 18.1614 14.9584 17.5318C15.8163 16.9021 16.451 16.0152 16.77 15H18C18.1326 15 18.2598 14.9473 18.3536 14.8535C18.4473 14.7598 18.5 14.6326 18.5 14.5C18.5 14.3674 18.4473 14.2402 18.3536 14.1464C18.2598 14.0527 18.1326 14 18 14H16.975C16.9913 13.8356 17 13.6687 17 13.5V13ZM12 6.49997C12.9738 6.50118 13.9138 6.85722 14.6441 7.50144C15.3744 8.14566 15.8448 9.03391 15.9675 9.99997H8.03C8.15271 9.03349 8.62356 8.14489 9.35435 7.50061C10.0851 6.85633 11.0258 6.50058 12 6.49997ZM12.5 17.4675V12.5C12.5 12.3674 12.4473 12.2402 12.3536 12.1464C12.2598 12.0527 12.1326 12 12 12C11.8674 12 11.7402 12.0527 11.6464 12.1464C11.5527 12.2402 11.5 12.3674 11.5 12.5V17.4675C10.5339 17.3448 9.64568 16.8743 9.00146 16.1441C8.35724 15.4138 8.00121 14.4738 8 13.5V11H16V13.5C15.9988 14.4738 15.6428 15.4138 14.9985 16.1441C14.3543 16.8743 13.4661 17.3448 12.5 17.4675Z" fill="#1C1C1C"/>
</svg>
