<svg width="20" height="20" viewBox="0 0 20 20" fill="none" xmlns="http://www.w3.org/2000/svg">
<path d="M7.50002 2.92969V8.55469L2.62502 11.3672C2.29959 9.61066 2.61183 7.79565 3.50554 6.24885C4.39925 4.70205 5.81572 3.52504 7.50002 2.92969Z" fill="#1C1C1C" fill-opacity="0.1"/>
<path d="M7.81261 9.09609C7.90765 9.04123 7.98656 8.96231 8.04142 8.86727C8.09627 8.77223 8.12514 8.66442 8.12511 8.55469V2.92969C8.12456 2.83004 8.10018 2.73198 8.05402 2.64367C8.00786 2.55536 7.94126 2.47936 7.85976 2.42202C7.77826 2.36469 7.68424 2.32766 7.58553 2.31405C7.48681 2.30043 7.38628 2.31062 7.2923 2.34375C5.46807 2.98939 3.93396 4.26457 2.96575 5.94005C1.99755 7.61554 1.65875 9.58145 2.01027 11.4844C2.02849 11.5828 2.07008 11.6754 2.13153 11.7544C2.19298 11.8333 2.27249 11.8964 2.3634 11.9383C2.44531 11.9766 2.53468 11.9963 2.62511 11.9961C2.73481 11.9961 2.84259 11.9673 2.93761 11.9125L7.81261 9.09609ZM6.87511 3.87656V8.19375L3.13449 10.3523C3.12511 10.2344 3.12511 10.1156 3.12511 10C3.12622 8.73309 3.4769 7.49106 4.13855 6.41066C4.80019 5.33025 5.74713 4.45337 6.87511 3.87656ZM17.0579 5.97812C17.0509 5.96406 17.0439 5.94922 17.0353 5.93516C17.0267 5.92109 17.0196 5.90938 17.0111 5.89688C16.2947 4.67328 15.2707 3.65834 14.0409 2.95282C12.811 2.24729 11.418 1.87572 10.0001 1.875C9.83435 1.875 9.67538 1.94085 9.55817 2.05806C9.44096 2.17527 9.37511 2.33424 9.37511 2.5V9.67422L3.21808 13.2602C3.14664 13.3016 3.0841 13.3567 3.0341 13.4225C2.9841 13.4882 2.94762 13.5632 2.92677 13.6431C2.90592 13.723 2.90112 13.8062 2.91263 13.888C2.92415 13.9698 2.95176 14.0485 2.99386 14.1195C3.8972 15.6578 5.28168 16.856 6.93365 17.5293C8.58561 18.2025 10.4132 18.3134 12.1345 17.8448C13.8557 17.3762 15.3749 16.3541 16.4576 14.9364C17.5403 13.5186 18.1262 11.7839 18.1251 10C18.1269 8.58916 17.759 7.20247 17.0579 5.97812ZM10.6251 3.15313C11.6164 3.24437 12.576 3.54965 13.4378 4.04791C14.2995 4.54617 15.0429 5.22552 15.6165 6.03906L10.6251 8.94609V3.15313ZM10.0001 16.875C8.90903 16.8722 7.83412 16.6111 6.86336 16.113C5.89259 15.6149 5.05357 14.894 4.41496 14.0094L10.3056 10.5789L10.3228 10.568L16.2423 7.12031C16.7255 8.16777 16.9373 9.31996 16.8583 10.4708C16.7793 11.6216 16.4121 12.734 15.7903 13.7057C15.1685 14.6773 14.3123 15.4768 13.3005 16.0307C12.2886 16.5845 11.1536 16.8749 10.0001 16.875Z" fill="#1C1C1C"/>
</svg>
