<svg width="20" height="20" viewBox="0 0 20 20" fill="none" xmlns="http://www.w3.org/2000/svg">
<path d="M14.3851 11.5391C14.2995 11.6143 14.2358 11.7114 14.2009 11.8199C14.1659 11.9284 14.161 12.0444 14.1867 12.1555L15.2429 16.7289C15.2709 16.8484 15.263 16.9734 15.2204 17.0884C15.1777 17.2034 15.1022 17.3034 15.0031 17.3757C14.9041 17.4481 14.786 17.4898 14.6634 17.4955C14.5409 17.5012 14.4194 17.4707 14.314 17.4078L10.3219 14.9859C10.2248 14.927 10.1135 14.8958 9.99998 14.8958C9.88645 14.8958 9.7751 14.927 9.6781 14.9859L5.68591 17.4078C5.58058 17.4707 5.45907 17.5012 5.33654 17.4955C5.214 17.4898 5.09585 17.4481 4.99682 17.3757C4.89778 17.3034 4.82223 17.2034 4.77959 17.0884C4.73695 16.9734 4.72909 16.8484 4.75701 16.7289L5.81326 12.1555C5.83893 12.0444 5.83404 11.9284 5.7991 11.8199C5.76416 11.7114 5.70048 11.6143 5.61482 11.5391L2.0906 8.46485C1.99638 8.38478 1.92803 8.27855 1.8942 8.15961C1.86038 8.04068 1.86259 7.91438 1.90056 7.7967C1.93853 7.67902 2.01056 7.57525 2.10752 7.49852C2.20449 7.42179 2.32203 7.37554 2.44529 7.36564L7.0906 6.96407C7.20393 6.95398 7.31236 6.91314 7.40419 6.84595C7.49602 6.77876 7.56777 6.68779 7.61169 6.58282L9.42654 2.25782C9.47501 2.146 9.55512 2.0508 9.657 1.98392C9.75889 1.91704 9.8781 1.88141 9.99998 1.88141C10.1218 1.88141 10.2411 1.91704 10.3429 1.98392C10.4448 2.0508 10.5249 2.146 10.5734 2.25782L12.3883 6.58282C12.4322 6.68779 12.5039 6.77876 12.5958 6.84595C12.6876 6.91314 12.796 6.95398 12.9094 6.96407L17.5547 7.36564C17.6779 7.37554 17.7955 7.42179 17.8924 7.49852C17.9894 7.57525 18.0614 7.67902 18.0994 7.7967C18.1374 7.91438 18.1396 8.04068 18.1057 8.15961C18.0719 8.27855 18.0036 8.38478 17.9094 8.46485L14.3851 11.5391Z" fill="#1C1C1C" fill-opacity="0.1"/>
<path d="M18.6875 7.60081C18.6118 7.36752 18.4692 7.16164 18.2773 7.00884C18.0855 6.85603 17.8529 6.76303 17.6086 6.74143L12.9688 6.34143L11.15 2.01643C11.0553 1.78949 10.8956 1.59564 10.691 1.45929C10.4863 1.32294 10.2459 1.25018 10 1.25018C9.75411 1.25018 9.51371 1.32294 9.30907 1.45929C9.10443 1.59564 8.94471 1.78949 8.85002 2.01643L7.03674 6.34143L2.39142 6.74378C2.14614 6.76439 1.9124 6.85696 1.71952 7.00988C1.52663 7.16281 1.38319 7.36927 1.30718 7.60339C1.23117 7.83751 1.22598 8.08886 1.29225 8.32592C1.35852 8.56298 1.49331 8.7752 1.6797 8.93596L5.20392 12.0157L4.14767 16.5891C4.09182 16.8284 4.10776 17.0789 4.19349 17.3092C4.27923 17.5396 4.43095 17.7395 4.6297 17.8841C4.82845 18.0286 5.0654 18.1114 5.31093 18.122C5.55647 18.1326 5.79968 18.0706 6.01017 17.9438L9.99455 15.5219L13.9875 17.9438C14.198 18.0706 14.4412 18.1326 14.6868 18.122C14.9323 18.1114 15.1692 18.0286 15.368 17.8841C15.5667 17.7395 15.7185 17.5396 15.8042 17.3092C15.8899 17.0789 15.9059 16.8284 15.85 16.5891L14.7945 12.011L18.318 8.93596C18.5044 8.77465 18.6389 8.56183 18.7046 8.32426C18.7704 8.0867 18.7644 7.835 18.6875 7.60081ZM17.4985 7.99143L13.975 11.0664C13.8035 11.2156 13.676 11.4087 13.606 11.625C13.5361 11.8412 13.5265 12.0724 13.5781 12.2938L14.6367 16.875L10.6469 14.4532C10.4522 14.3346 10.2287 14.2719 10.0008 14.2719C9.77288 14.2719 9.54936 14.3346 9.3547 14.4532L5.37033 16.875L6.42189 12.2969C6.47357 12.0756 6.46393 11.8443 6.394 11.6281C6.32407 11.4118 6.1965 11.2187 6.02502 11.0696L2.50002 7.99612C2.49973 7.99379 2.49973 7.99143 2.50002 7.98909L7.14377 7.58753C7.37049 7.56754 7.58745 7.48604 7.77125 7.3518C7.95505 7.21757 8.09871 7.0357 8.18674 6.82581L10 2.50628L11.8125 6.82581C11.9005 7.0357 12.0442 7.21757 12.228 7.3518C12.4118 7.48604 12.6288 7.56754 12.8555 7.58753L17.5 7.98909C17.5 7.98909 17.5 7.99378 17.5 7.99456L17.4985 7.99143Z" fill="#1C1C1C"/>
</svg>
