<svg width="24" height="24" viewBox="0 0 24 24" fill="none" xmlns="http://www.w3.org/2000/svg">
<path d="M0 12C0 8.27247 0 6.4087 0.608964 4.93853C1.42092 2.97831 2.97831 1.42092 4.93853 0.608964C6.4087 0 8.27247 0 12 0V0C15.7275 0 17.5913 0 19.0615 0.608964C21.0217 1.42092 22.5791 2.97831 23.391 4.93853C24 6.4087 24 8.27247 24 12V12C24 15.7275 24 17.5913 23.391 19.0615C22.5791 21.0217 21.0217 22.5791 19.0615 23.391C17.5913 24 15.7275 24 12 24V24C8.27247 24 6.4087 24 4.93853 23.391C2.97831 22.5791 1.42092 21.0217 0.608964 19.0615C0 17.5913 0 15.7275 0 12V12Z" fill="#E5ECF6"/>
<path d="M11.9999 9.50001C11.5055 9.50001 11.0221 9.64663 10.611 9.92133C10.1999 10.196 9.87943 10.5865 9.69021 11.0433C9.50099 11.5001 9.45148 12.0028 9.54795 12.4877C9.64441 12.9727 9.88251 13.4181 10.2321 13.7678C10.5818 14.1174 11.0272 14.3555 11.5122 14.452C11.9971 14.5484 12.4998 14.4989 12.9566 14.3097C13.4134 14.1205 13.8039 13.8001 14.0786 13.3889C14.3533 12.9778 14.4999 12.4945 14.4999 12C14.4999 11.337 14.2365 10.7011 13.7677 10.2322C13.2988 9.7634 12.663 9.50001 11.9999 9.50001ZM11.9999 13.5C11.7032 13.5 11.4132 13.412 11.1666 13.2472C10.9199 13.0824 10.7276 12.8481 10.6141 12.574C10.5006 12.2999 10.4709 11.9983 10.5287 11.7074C10.5866 11.4164 10.7295 11.1491 10.9393 10.9393C11.149 10.7296 11.4163 10.5867 11.7073 10.5288C11.9982 10.471 12.2998 10.5007 12.5739 10.6142C12.848 10.7277 13.0823 10.92 13.2471 11.1667C13.4119 11.4133 13.4999 11.7033 13.4999 12C13.4999 12.3978 13.3419 12.7794 13.0606 13.0607C12.7793 13.342 12.3977 13.5 11.9999 13.5ZM16.6068 13.9463C16.392 14.4541 16.0946 14.9229 15.7268 15.3338C15.6377 15.4301 15.5143 15.4876 15.3832 15.4938C15.2522 15.5 15.1239 15.4545 15.0261 15.3669C14.9283 15.2794 14.8689 15.157 14.8606 15.026C14.8523 14.895 14.8958 14.766 14.9818 14.6669C15.6383 13.9338 16.0013 12.9844 16.0013 12.0003C16.0013 11.0163 15.6383 10.0668 14.9818 9.33376C14.9368 9.28504 14.9019 9.22786 14.8792 9.16554C14.8565 9.10322 14.8464 9.037 14.8495 8.97074C14.8527 8.90449 14.869 8.83952 14.8975 8.77962C14.926 8.71972 14.9661 8.66609 15.0155 8.62185C15.0649 8.57761 15.1227 8.54365 15.1853 8.52194C15.248 8.50023 15.3144 8.49121 15.3806 8.4954C15.4468 8.49959 15.5115 8.51691 15.5709 8.54635C15.6304 8.57579 15.6833 8.61676 15.7268 8.66688C16.3581 9.37334 16.776 10.2445 16.9318 11.1791C17.0875 12.1136 16.9748 13.0732 16.6068 13.9463ZM8.31241 10.4431C8.0174 11.1415 7.92692 11.9093 8.05152 12.6571C8.17611 13.4049 8.51066 14.1019 9.01616 14.6669C9.10212 14.766 9.14565 14.895 9.13736 15.026C9.12907 15.157 9.06962 15.2794 8.97184 15.3669C8.87406 15.4545 8.74579 15.5 8.6147 15.4938C8.48362 15.4876 8.36023 15.4301 8.27116 15.3338C7.45028 14.4175 6.99635 13.2305 6.99635 12.0003C6.99635 10.7701 7.45028 9.58316 8.27116 8.66688C8.35959 8.56784 8.48375 8.50799 8.61631 8.50048C8.74888 8.49298 8.87899 8.53845 8.97804 8.62688C9.07708 8.71532 9.13693 8.83947 9.14443 8.97204C9.15194 9.1046 9.10647 9.23472 9.01804 9.33376C8.72304 9.66194 8.48458 10.0368 8.31241 10.4431ZM19.4999 12C19.5029 13.9636 18.7331 15.8495 17.3568 17.25C17.3113 17.2987 17.2564 17.3378 17.1956 17.365C17.1347 17.3922 17.069 17.4069 17.0024 17.4083C16.9358 17.4098 16.8695 17.3979 16.8075 17.3733C16.7456 17.3488 16.6891 17.3121 16.6415 17.2654C16.5939 17.2188 16.5562 17.163 16.5304 17.1016C16.5047 17.0401 16.4915 16.9741 16.4916 16.9074C16.4918 16.8407 16.5052 16.7748 16.5312 16.7134C16.5572 16.652 16.5952 16.5965 16.643 16.55C17.8347 15.3359 18.5024 13.7025 18.5024 12.0013C18.5024 10.3 17.8347 8.66666 16.643 7.45251C16.5499 7.35786 16.4981 7.23008 16.4992 7.09728C16.5002 6.96448 16.554 6.83754 16.6487 6.74438C16.7433 6.65123 16.8711 6.59948 17.0039 6.60054C17.1367 6.60159 17.2636 6.65536 17.3568 6.75001C18.7331 8.15053 19.5029 10.0364 19.4999 12ZM7.35679 16.5488C7.40283 16.5956 7.43919 16.6511 7.4638 16.712C7.4884 16.7729 7.50077 16.8381 7.50019 16.9038C7.49961 16.9695 7.48609 17.0344 7.46042 17.0949C7.43474 17.1554 7.3974 17.2102 7.35054 17.2563C7.30367 17.3023 7.2482 17.3387 7.18728 17.3633C7.12636 17.3879 7.06119 17.4002 6.99549 17.3997C6.92979 17.3991 6.86485 17.3856 6.80438 17.3599C6.74391 17.3342 6.68908 17.2969 6.64304 17.25C5.2669 15.8491 4.49585 13.9638 4.49585 12C4.49585 10.0362 5.2669 8.15096 6.64304 6.75001C6.68857 6.70133 6.74338 6.66224 6.80424 6.63505C6.8651 6.60786 6.93078 6.59311 6.99742 6.59167C7.06406 6.59023 7.13032 6.60213 7.19229 6.62668C7.25427 6.65122 7.31071 6.6879 7.3583 6.73458C7.40589 6.78125 7.44367 6.83697 7.46941 6.89846C7.49515 6.95994 7.50834 7.02595 7.5082 7.09261C7.50806 7.15927 7.49459 7.22523 7.46859 7.2866C7.44259 7.34798 7.40457 7.40354 7.35679 7.45001C6.16508 8.66416 5.49744 10.2975 5.49744 11.9988C5.49744 13.7 6.16508 15.3334 7.35679 16.5475V16.5488Z" fill="#1C1C1C"/>
</svg>
