<svg width="24" height="24" viewBox="0 0 24 24" fill="none" xmlns="http://www.w3.org/2000/svg">
<path d="M0 12C0 8.27247 0 6.4087 0.608964 4.93853C1.42092 2.97831 2.97831 1.42092 4.93853 0.608964C6.4087 0 8.27247 0 12 0V0C15.7275 0 17.5913 0 19.0615 0.608964C21.0217 1.42092 22.5791 2.97831 23.391 4.93853C24 6.4087 24 8.27247 24 12V12C24 15.7275 24 17.5913 23.391 19.0615C22.5791 21.0217 21.0217 22.5791 19.0615 23.391C17.5913 24 15.7275 24 12 24V24C8.27247 24 6.4087 24 4.93853 23.391C2.97831 22.5791 1.42092 21.0217 0.608964 19.0615C0 17.5913 0 15.7275 0 12V12Z" fill="#E5ECF6"/>
<path d="M18.4324 17.25C17.4806 15.6044 16.0137 14.4244 14.3018 13.865C15.1486 13.3609 15.8065 12.5928 16.1744 11.6786C16.5424 10.7644 16.6001 9.75474 16.3387 8.80459C16.0773 7.85444 15.5112 7.01636 14.7274 6.41907C13.9436 5.82178 12.9854 5.49829 11.9999 5.49829C11.0145 5.49829 10.0563 5.82178 9.27244 6.41907C8.48863 7.01636 7.92255 7.85444 7.66114 8.80459C7.39973 9.75474 7.45744 10.7644 7.82542 11.6786C8.19339 12.5928 8.85128 13.3609 9.69805 13.865C7.98618 14.4237 6.5193 15.6037 5.56743 17.25C5.53252 17.3069 5.50936 17.3702 5.49933 17.4363C5.4893 17.5023 5.49259 17.5696 5.509 17.6343C5.52542 17.6991 5.55463 17.7598 5.59492 17.8131C5.63521 17.8663 5.68575 17.911 5.74357 17.9444C5.80138 17.9778 5.8653 17.9992 5.93156 18.0075C5.99781 18.0158 6.06505 18.0108 6.12931 17.9926C6.19358 17.9745 6.25356 17.9437 6.30573 17.902C6.3579 17.8604 6.40119 17.8087 6.43305 17.75C7.61055 15.715 9.6918 14.5 11.9999 14.5C14.3081 14.5 16.3893 15.715 17.5668 17.75C17.5987 17.8087 17.642 17.8604 17.6941 17.902C17.7463 17.9437 17.8063 17.9745 17.8705 17.9926C17.9348 18.0108 18.002 18.0158 18.0683 18.0075C18.1345 17.9992 18.1985 17.9778 18.2563 17.9444C18.3141 17.911 18.3646 17.8663 18.4049 17.8131C18.4452 17.7598 18.4744 17.6991 18.4908 17.6343C18.5073 17.5696 18.5106 17.5023 18.5005 17.4363C18.4905 17.3702 18.4673 17.3069 18.4324 17.25ZM8.49993 9.99999C8.49993 9.30776 8.7052 8.63107 9.08978 8.0555C9.47437 7.47992 10.021 7.03132 10.6605 6.76641C11.3001 6.50151 12.0038 6.43219 12.6827 6.56724C13.3617 6.70229 13.9853 7.03563 14.4748 7.52512C14.9643 8.0146 15.2976 8.63824 15.4327 9.31718C15.5677 9.99611 15.4984 10.6998 15.2335 11.3394C14.9686 11.9789 14.52 12.5256 13.9444 12.9101C13.3688 13.2947 12.6922 13.5 11.9999 13.5C11.072 13.499 10.1823 13.1299 9.52615 12.4738C8.86999 11.8176 8.50092 10.9279 8.49993 9.99999Z" fill="#1C1C1C"/>
</svg>
